<svg width="24" height="25" viewBox="0 0 24 25" fill="none" xmlns="http://www.w3.org/2000/svg">
<path d="M8.4 17.6666L12 14.0666L15.6 17.6666L17 16.2666L13.4 12.6666L17 9.06663L15.6 7.66663L12 11.2666L8.4 7.66663L7 9.06663L10.6 12.6666L7 16.2666L8.4 17.6666ZM12 22.6666C10.6167 22.6666 9.31667 22.4041 8.1 21.8791C6.88333 21.3541 5.825 20.6416 4.925 19.7416C4.025 18.8416 3.3125 17.7833 2.7875 16.5666C2.2625 15.35 2 14.05 2 12.6666C2 11.2833 2.2625 9.98329 2.7875 8.76663C3.3125 7.54996 4.025 6.49163 4.925 5.59163C5.825 4.69163 6.88333 3.97913 8.1 3.45413C9.31667 2.92913 10.6167 2.66663 12 2.66663C13.3833 2.66663 14.6833 2.92913 15.9 3.45413C17.1167 3.97913 18.175 4.69163 19.075 5.59163C19.975 6.49163 20.6875 7.54996 21.2125 8.76663C21.7375 9.98329 22 11.2833 22 12.6666C22 14.05 21.7375 15.35 21.2125 16.5666C20.6875 17.7833 19.975 18.8416 19.075 19.7416C18.175 20.6416 17.1167 21.3541 15.9 21.8791C14.6833 22.4041 13.3833 22.6666 12 22.6666ZM12 20.6666C14.2333 20.6666 16.125 19.8916 17.675 18.3416C19.225 16.7916 20 14.9 20 12.6666C20 10.4333 19.225 8.54163 17.675 6.99163C16.125 5.44163 14.2333 4.66663 12 4.66663C9.76667 4.66663 7.875 5.44163 6.325 6.99163C4.775 8.54163 4 10.4333 4 12.6666C4 14.9 4.775 16.7916 6.325 18.3416C7.875 19.8916 9.76667 20.6666 12 20.6666Z" fill="#49454F"/>
</svg>
