<svg width="24" height="25" viewBox="0 0 24 25" fill="none" xmlns="http://www.w3.org/2000/svg">
<path d="M8.4 17.3334L12 13.7334L15.6 17.3334L17 15.9334L13.4 12.3334L17 8.73337L15.6 7.33337L12 10.9334L8.4 7.33337L7 8.73337L10.6 12.3334L7 15.9334L8.4 17.3334ZM12 22.3334C10.6167 22.3334 9.31667 22.0709 8.1 21.5459C6.88333 21.0209 5.825 20.3084 4.925 19.4084C4.025 18.5084 3.3125 17.45 2.7875 16.2334C2.2625 15.0167 2 13.7167 2 12.3334C2 10.95 2.2625 9.65004 2.7875 8.43337C3.3125 7.21671 4.025 6.15837 4.925 5.25837C5.825 4.35837 6.88333 3.64587 8.1 3.12087C9.31667 2.59587 10.6167 2.33337 12 2.33337C13.3833 2.33337 14.6833 2.59587 15.9 3.12087C17.1167 3.64587 18.175 4.35837 19.075 5.25837C19.975 6.15837 20.6875 7.21671 21.2125 8.43337C21.7375 9.65004 22 10.95 22 12.3334C22 13.7167 21.7375 15.0167 21.2125 16.2334C20.6875 17.45 19.975 18.5084 19.075 19.4084C18.175 20.3084 17.1167 21.0209 15.9 21.5459C14.6833 22.0709 13.3833 22.3334 12 22.3334ZM12 20.3334C14.2333 20.3334 16.125 19.5584 17.675 18.0084C19.225 16.4584 20 14.5667 20 12.3334C20 10.1 19.225 8.20837 17.675 6.65837C16.125 5.10837 14.2333 4.33337 12 4.33337C9.76667 4.33337 7.875 5.10837 6.325 6.65837C4.775 8.20837 4 10.1 4 12.3334C4 14.5667 4.775 16.4584 6.325 18.0084C7.875 19.5584 9.76667 20.3334 12 20.3334Z" fill="#49454F"/>
</svg>
